<svg xmlns="http://www.w3.org/2000/svg" xmlns:xlink="http://www.w3.org/1999/xlink" width="750" height="937.5" xmlns:v="https://vecta.io/nano"><path fill="#fff" d="M31.25 31.25h694.375v694.375H31.25z"/><g fill="#44d483"><path d="M40.625 750H706.25c21.875 0 40.625-18.75 40.625-40.625V43.75C750 18.75 731.25 0 709.375 0H40.625C18.75 0 0 18.75 0 40.625V706.25c0 25 18.75 43.75 40.625 43.75zM31.25 62.5c0-18.75 15.625-31.25 31.25-31.25h625c18.75 0 31.25 15.625 31.25 31.25v625c0 18.75-15.625 31.25-31.25 31.25h-625c-18.75 0-31.25-15.625-31.25-31.25v-625z"/><path d="M31.25 937.5h687.5c15.625 0 31.25-12.5 31.25-31.25V812.5c0-15.625-12.5-31.25-31.25-31.25h-312.5L375 750l-31.25 31.25H31.25C15.625 781.25 0 793.75 0 812.5v93.75C0 925 12.5 937.5 31.25 937.5z"/></g><path d="M339.72 99.72H315V87.36c0-7.004 5.356-12.36 12.36-12.36h12.36v24.72z"/><path d="M339 75h24.72v24.72H339z"/><path d="M363 75h24.72v24.72H363z"/><path d="M411.72 99.72H387V75h12.36c7.004 0 12.36 5.356 12.36 12.36v12.36zm72 0H459h0C459 86.124 470.124 75 483.72 75h0l-1.648 5.356c-1.648 4.532-1.648 9.888 0 14.42l1.648 4.944z"/><path d="M315 99l1.648 5.356c1.648 4.532 1.648 9.888 0 14.42L315 123.72c13.596 0 24.72-11.124 24.72-24.72H315zm48 0h24.72v24.72H363z"/><path d="M387 99h24.72v24.72H387z"/><path d="M411 99h24.72v24.72H411z"/><path d="M435 99h24.72v24.72H435z"/><path d="M471.36 123.72H459V99h24.72v12.36c0 7.004-5.356 12.36-12.36 12.36zm-179.64 24H267v-12.36c0-7.004 5.356-12.36 12.36-12.36h12.36v24.72z"/><use xlink:href="#B"/><path d="M363 123l1.648 5.356c1.648 4.532 1.648 9.888 0 14.42L363 147.72c13.596 0 24.72-11.124 24.72-24.72H363zm48 0h24.72v24.72H411zm-144 24h24.72v24.72H267z"/><use xlink:href="#C"/><path d="M411.72 171.72H387v-12.36c0-7.004 5.356-12.36 12.36-12.36h12.36v24.72z"/><path d="M411 147h24.72v24.72H411z"/><use xlink:href="#B" x="144" y="24"/><path d="M267 171h24.72v24.72H267zm96.72 24.72h-12.36c-7.004 0-12.36-5.356-12.36-12.36V171h24.72v24.72z"/><path d="M363 171h24.72v24.72H363z"/><path d="M399.36 195.72H387V171h24.72v12.36c0 7.004-5.356 12.36-12.36 12.36z"/><circle cx="3" cy="3" r="3" transform="matrix(4.12 0 0 4.12 459 171)"/><path d="M267 195h24.72v24.72H267z"/><use xlink:href="#B" y="72"/><path d="M363 195h24.72v24.72H363zm72.72 24.72H411v-12.36c0-7.004 5.356-12.36 12.36-12.36h12.36v24.72z"/><use xlink:href="#B" x="144" y="72"/><path d="M267 219h24.72v24.72H267z"/><circle cx="3" cy="3" r="3" transform="matrix(4.12 0 0 4.12 315 219)"/><path d="M363 219l1.648 5.356c1.648 4.532 1.648 9.888 0 14.42L363 243.72c13.596 0 24.72-11.124 24.72-24.72H363zm48 0h24.72v24.72H411zm72.72 24.72H459h0c0-13.596 11.124-24.72 24.72-24.72h0l-1.648 5.356c-1.648 4.532-1.648 9.888 0 14.42l1.648 4.944zM267 243l1.648 5.356c1.648 4.532 1.648 9.888 0 14.42L267 267.72c13.596 0 24.72-11.124 24.72-24.72H267z"/><use xlink:href="#C" y="96"/><path d="M411 243l1.648 5.356c1.648 4.532 1.648 9.888 0 14.42L411 267.72c13.596 0 24.72-11.124 24.72-24.72H411zm48 0l1.648 5.356c1.648 4.532 1.648 9.888 0 14.42L459 267.72c13.596 0 24.72-11.124 24.72-24.72H459zM99.72 291.72H75h0C75 278.124 86.124 267 99.72 267h0l-1.648 5.356c-1.648 4.532-1.648 9.888 0 14.42l1.648 4.944zm48 0H123v-12.36c0-7.004 5.356-12.36 12.36-12.36h12.36v24.72z"/><path d="M147 267h24.72v24.72H147z"/><path d="M171 267h24.72v24.72H171z"/><path d="M195 267h24.72v24.72H195z"/><use xlink:href="#B" x="-72" y="144"/><path d="M339 267h24.72v24.72H339zm72.72 24.72H387h0c0-13.596 11.124-24.72 24.72-24.72h0l-1.648 5.356c-1.648 4.532-1.648 9.888 0 14.42l1.648 4.944zm114.644-23.072c-4.532 1.648-9.888 1.648-14.42 0L507 267c0 13.596 11.124 24.72 24.72 24.72V267l-5.356 1.648z"/><path d="M531 267h24.72v24.72H531z"/><path d="M555 267h24.72v24.72H555z"/><path d="M579 267h24.72v24.72H579z"/><use xlink:href="#B" x="312" y="144"/><path d="M99.72 315.72H87.36c-7.004 0-12.36-5.356-12.36-12.36V291h24.72v24.72z"/><path d="M99 291h24.72v24.72H99z"/><path d="M123 291h24.72v24.72H123z"/><path d="M147 291h24.72v24.72H147zm168.72 24.72H291h0c0-13.596 11.124-24.72 24.72-24.72h0l-1.648 5.356c-1.648 4.532-1.648 9.888 0 14.42l1.648 4.944zM339 291h24.72v24.72H339z"/><path d="M363 291h24.72v24.72H363z"/><path d="M387 291h24.72v24.72H387z"/><circle cx="3" cy="3" r="3" transform="matrix(4.12 0 0 4.12 483 291)"/><path d="M531 291l1.648 5.356c1.648 4.532 1.648 9.888 0 14.42L531 315.72c13.596 0 24.72-11.124 24.72-24.72H531zm120.72 24.72H627h0c0-13.596 11.124-24.72 24.72-24.72h0l-1.648 5.356c-1.648 4.532-1.648 9.888 0 14.42l1.648 4.944z"/><use xlink:href="#D"/><path d="M123 315h24.72v24.72H123z"/><path d="M147 315h24.72v24.72H147z"/><use xlink:href="#B" x="-120" y="192"/><circle cx="3" cy="3" r="3" transform="matrix(4.12 0 0 4.12 219 315)"/><use xlink:href="#D" x="192"/><path d="M315 315h24.72v24.72H315z"/><path d="M339 315h24.72v24.72H339z"/><use xlink:href="#D" x="288"/><path d="M411 315h24.72v24.72H411z"/><path d="M435 315h24.72v24.72H435z"/><path d="M483.72 339.72H459V315h12.36c7.004 0 12.36 5.356 12.36 12.36v12.36zm48 0H507h0c0-13.596 11.124-24.72 24.72-24.72h0l-1.648 5.356c-1.648 4.532-1.648 9.888 0 14.42l1.648 4.944z"/><circle cx="3" cy="3" r="3" transform="matrix(4.12 0 0 4.12 579 315)"/><use xlink:href="#D" x="528"/><path d="M675.72 339.72H651V315h12.36c7.004 0 12.36 5.356 12.36 12.36v12.36zM147 339h24.72v24.72H147z"/><circle cx="3" cy="3" r="3" transform="matrix(4.12 0 0 4.12 243 339)"/><path d="M363.72 363.72h-12.36c-7.004 0-12.36-5.356-12.36-12.36V339h24.72v24.72z"/><use xlink:href="#B" x="72" y="216"/><path d="M435.72 363.72h-12.36c-7.004 0-12.36-5.356-12.36-12.36V339h24.72v24.72z"/><path d="M435 339h24.72v24.72H435z"/><path d="M459 339h24.72v24.72H459z"/><path d="M483 339h24.72v24.72H483z"/><path d="M507 339h24.72v24.72H507z"/><path d="M555.72 363.72H531V339h12.36c7.004 0 12.36 5.356 12.36 12.36v12.36zM651 339h24.72v24.72H651zM99.72 387.72H75h0C75 374.124 86.124 363 99.72 363h0l-1.648 5.356c-1.648 4.532-1.648 9.888 0 14.42l1.648 4.944zm48 0H123v-12.36c0-7.004 5.356-12.36 12.36-12.36h12.36v24.72z"/><path d="M147 363h24.72v24.72H147z"/><use xlink:href="#B" x="-120" y="240"/><circle cx="3" cy="3" r="3" transform="matrix(4.12 0 0 4.12 219 363)"/><path d="M286.364 364.648c-4.532 1.648-9.888 1.648-14.42 0L267 363c0 13.596 11.124 24.72 24.72 24.72V363l-5.356 1.648z"/><use xlink:href="#B" y="240"/><path d="M435 363l1.648 5.356c1.648 4.532 1.648 9.888 0 14.42L435 387.72c13.596 0 24.72-11.124 24.72-24.72H435zm48 0h24.72v24.72H483z"/><path d="M507 363h24.72v24.72H507z"/><path d="M531 363h24.72v24.72H531z"/><use xlink:href="#B" x="264" y="240"/><path d="M622.364 364.648c-4.532 1.648-9.888 1.648-14.42 0L603 363c0 13.596 11.124 24.72 24.72 24.72V363l-5.356 1.648z"/><path d="M627 363h24.72v24.72H627z"/><path d="M663.36 387.72H651V363h24.72v12.36c0 7.004-5.356 12.36-12.36 12.36zM75 387h24.72v24.72H75zm48 0l1.648 5.356c1.648 4.532 1.648 9.888 0 14.42L123 411.72c13.596 0 24.72-11.124 24.72-24.72H123z"/><circle cx="3" cy="3" r="3" transform="matrix(4.12 0 0 4.12 195 387)"/><path d="M339.72 411.72H315h0c0-13.596 11.124-24.72 24.72-24.72h0l-1.648 5.356c-1.648 4.532-1.648 9.888 0 14.42l1.648 4.944zm42.644-23.072c-4.532 1.648-9.888 1.648-14.42 0L363 387c0 13.596 11.124 24.72 24.72 24.72V387l-5.356 1.648z"/><path d="M411.72 411.72H387V387h12.36c7.004 0 12.36 5.356 12.36 12.36v12.36zm66.644-23.072c-4.532 1.648-9.888 1.648-14.42 0L459 387c0 13.596 11.124 24.72 24.72 24.72V387l-5.356 1.648z"/><path d="M495.36 411.72H483V387h24.72v12.36c0 7.004-5.356 12.36-12.36 12.36zm108.36 0H579h0c0-13.596 11.124-24.72 24.72-24.72h0l-1.648 5.356c-1.648 4.532-1.648 9.888 0 14.42l1.648 4.944zM627 387h24.72v24.72H627zM75 411h24.72v24.72H75z"/><circle cx="3" cy="3" r="3" transform="matrix(4.12 0 0 4.12 219 411)"/><path d="M291.72 435.72H267h0c0-13.596 11.124-24.72 24.72-24.72h0l-1.648 5.356c-1.648 4.532-1.648 9.888 0 14.42l1.648 4.944zM315 411l1.648 5.356c1.648 4.532 1.648 9.888 0 14.42L315 435.72c13.596 0 24.72-11.124 24.72-24.72H315zm72 0h24.72v24.72H387z"/><path d="M411 411h24.72v24.72H411z"/><path d="M459.72 435.72H435V411h12.36c7.004 0 12.36 5.356 12.36 12.36v12.36zm66.644-23.072c-4.532 1.648-9.888 1.648-14.42 0L507 411c0 13.596 11.124 24.72 24.72 24.72V411l-5.356 1.648z"/><path d="M531 411h24.72v24.72H531z"/><path d="M555 411h24.72v24.72H555z"/><path d="M591.36 435.72H579V411h24.72v12.36c0 7.004-5.356 12.36-12.36 12.36zm60.36 0h-12.36c-7.004 0-12.36-5.356-12.36-12.36V411h24.72v24.72z"/><path d="M675.72 435.72H651V411h12.36c7.004 0 12.36 5.356 12.36 12.36v12.36zM75 435h24.72v24.72H75z"/><circle cx="3" cy="3" r="3" transform="matrix(4.12 0 0 4.12 195 435)"/><path d="M262.364 436.648c-4.532 1.648-9.888 1.648-14.42 0L243 435c0 13.596 11.124 24.72 24.72 24.72V435l-5.356 1.648z"/><path d="M267 435h24.72v24.72H267zm120.72 24.72H363v-12.36c0-7.004 5.356-12.36 12.36-12.36h12.36v24.72z"/><path d="M399.36 459.72H387V435h24.72v12.36c0 7.004-5.356 12.36-12.36 12.36zM435 435h24.72v24.72H435z"/><path d="M483.72 459.72H459V435h12.36c7.004 0 12.36 5.356 12.36 12.36v12.36zM531 435h24.72v24.72H531z"/><path d="M555 435h24.72v24.72H555zm96 0l1.648 5.356c1.648 4.532 1.648 9.888 0 14.42L651 459.72c13.596 0 24.72-11.124 24.72-24.72H651zM75 459l1.648 5.356c1.648 4.532 1.648 9.888 0 14.42L75 483.72c13.596 0 24.72-11.124 24.72-24.72H75zm91.364 1.648c-4.532 1.648-9.888 1.648-14.42 0L147 459c0 13.596 11.124 24.72 24.72 24.72V459l-5.356 1.648z"/><use xlink:href="#B" x="-120" y="336"/><circle cx="3" cy="3" r="3" transform="matrix(4.12 0 0 4.12 219 459)"/><path d="M267 459h24.72v24.72H267z"/><path d="M291 459h24.72v24.72H291z"/><use xlink:href="#B" x="24" y="336"/><path d="M363 459l1.648 5.356c1.648 4.532 1.648 9.888 0 14.42L363 483.72c13.596 0 24.72-11.124 24.72-24.72H363zm67.364 1.648c-4.532 1.648-9.888 1.648-14.42 0L411 459c0 13.596 11.124 24.72 24.72 24.72V459l-5.356 1.648z"/><path d="M435 459h24.72v24.72H435z"/><path d="M459 459h24.72v24.72H459z"/><path d="M483 459h24.72v24.72H483z"/><path d="M507 459h24.72v24.72H507z"/><path d="M531 459h24.72v24.72H531z"/><path d="M555 459h24.72v24.72H555z"/><circle cx="3" cy="3" r="3" transform="matrix(4.12 0 0 4.12 603 459)"/><path d="M291.72 507.72h-12.36c-7.004 0-12.36-5.356-12.36-12.36V483h24.72v24.72z"/><path d="M291 483h24.72v24.72H291zm168.72 24.72h-12.36c-7.004 0-12.36-5.356-12.36-12.36V483h24.72v24.72z"/><path d="M459 483h24.72v24.72H459zm96 0h24.72v24.72H555z"/><use xlink:href="#B" x="288" y="360"/><path d="M291 507h24.72v24.72H291zm72.72 24.72H339v-12.36c0-7.004 5.356-12.36 12.36-12.36h12.36v24.72z"/><use xlink:href="#B" x="72" y="384"/><path d="M459 507h24.72v24.72H459z"/><circle cx="3" cy="3" r="3" transform="matrix(4.12 0 0 4.12 507 507)"/><path d="M555 507h24.72v24.72H555zm67.364 1.648c-4.532 1.648-9.888 1.648-14.42 0L603 507c0 13.596 11.124 24.72 24.72 24.72V507l-5.356 1.648z"/><path d="M627 507h24.72v24.72H627z"/><path d="M675.72 531.72H651V507h12.36c7.004 0 12.36 5.356 12.36 12.36v12.36zm-384 24H267v-12.36c0-7.004 5.356-12.36 12.36-12.36h12.36v24.72z"/><path d="M291 531h24.72v24.72H291z"/><path d="M315 531h24.72v24.72H315z"/><path d="M339 531h24.72v24.72H339z"/><circle cx="3" cy="3" r="3" transform="matrix(4.12 0 0 4.12 411 531)"/><path d="M459 531h24.72v24.72H459zm96 0h24.72v24.72H555z"/><use xlink:href="#B" x="288" y="408"/><path d="M651 531h24.72v24.72H651zm-384 24h24.72v24.72H267z"/><path d="M291 555h24.72v24.72H291z"/><path d="M315 555h24.72v24.72H315z"/><path d="M351.36 579.72H339V555h24.72v12.36c0 7.004-5.356 12.36-12.36 12.36zm103.004-23.072c-4.532 1.648-9.888 1.648-14.42 0L435 555c0 13.596 11.124 24.72 24.72 24.72V555l-5.356 1.648z"/><path d="M459 555h24.72v24.72H459z"/><path d="M483 555h24.72v24.72H483z"/><path d="M507 555h24.72v24.72H507z"/><path d="M531 555h24.72v24.72H531z"/><path d="M555 555h24.72v24.72H555zm72.72 24.72H603v-12.36c0-7.004 5.356-12.36 12.36-12.36h12.36v24.72z"/><path d="M627 555h24.72v24.72H627z"/><path d="M651 555h24.72v24.72H651zm-384 24h24.72v24.72H267z"/><path d="M291 579h24.72v24.72H291zm91.364 1.648c-4.532 1.648-9.888 1.648-14.42 0L363 579c0 13.596 11.124 24.72 24.72 24.72V579l-5.356 1.648z"/><path d="M387 579h24.72v24.72H387z"/><path d="M435.72 603.72H411V579h12.36c7.004 0 12.36 5.356 12.36 12.36v12.36zM459 579h24.72v24.72H459z"/><path d="M483 579h24.72v24.72H483z"/><path d="M519.36 603.72H507V579h24.72v12.36c0 7.004-5.356 12.36-12.36 12.36zm60.36 0h-12.36c-7.004 0-12.36-5.356-12.36-12.36V579h24.72v24.72z"/><path d="M579 579h24.72v24.72H579z"/><path d="M603 579h24.72v24.72H603z"/><path d="M627 579h24.72v24.72H627z"/><path d="M651 579h24.72v24.72H651zm-359.28 48.72h-12.36c-7.004 0-12.36-5.356-12.36-12.36V603h24.72v24.72z"/><path d="M303.36 627.72H291V603h24.72v12.36c0 7.004-5.356 12.36-12.36 12.36zM387 603h24.72v24.72H387z"/><path d="M423.36 627.72H411V603h24.72v12.36c0 7.004-5.356 12.36-12.36 12.36zM459 603h24.72v24.72H459zm120 0h24.72v24.72H579z"/><path d="M615.36 627.72H603V603h24.72v12.36c0 7.004-5.356 12.36-12.36 12.36zM651 603h24.72v24.72H651z"/><circle cx="3" cy="3" r="3" transform="matrix(4.12 0 0 4.12 315 627)"/><path d="M387.72 651.72H363v-12.36c0-7.004 5.356-12.36 12.36-12.36h12.36v24.72z"/><path d="M399.36 651.72H387V627h24.72v12.36c0 7.004-5.356 12.36-12.36 12.36zm55.004-23.072c-4.532 1.648-9.888 1.648-14.42 0L435 627c0 13.596 11.124 24.72 24.72 24.72V627l-5.356 1.648z"/><path d="M471.36 651.72H459V627h24.72v12.36c0 7.004-5.356 12.36-12.36 12.36zm55.004-23.072c-4.532 1.648-9.888 1.648-14.42 0L507 627c0 13.596 11.124 24.72 24.72 24.72V627l-5.356 1.648z"/><path d="M531 627h24.72v24.72H531z"/><path d="M555 627h24.72v24.72H555z"/><path d="M579 627h24.72v24.72H579zm72 0h24.72v24.72H651z"/><circle cx="3" cy="3" r="3" transform="matrix(4.12 0 0 4.12 267 651)"/><path d="M363 651l1.648 5.356c1.648 4.532 1.648 9.888 0 14.42L363 675.72c13.596 0 24.72-11.124 24.72-24.72H363z"/><circle cx="3" cy="3" r="3" transform="matrix(4.12 0 0 4.12 411 651)"/><circle cx="3" cy="3" r="3" transform="matrix(4.12 0 0 4.12 483 651)"/><path d="M555.72 675.72h-12.36c-7.004 0-12.36-5.356-12.36-12.36V651h24.72v24.72z"/><path d="M555 651h24.72v24.72H555z"/><path d="M579 651h24.72v24.72H579z"/><path d="M603 651h24.72v24.72H603z"/><path d="M627 651h24.72v24.72H627z"/><path d="M663.36 675.72H651V651h24.72v12.36c0 7.004-5.356 12.36-12.36 12.36zM75 75v84c0 46.8 37.2 84 84 84h0c46.8 0 84-37.2 84-84h0c0-46.8-37.2-84-84-84H75zm84 144h0c-33.6 0-60-26.4-60-60V99h60c33.6 0 60 26.4 60 60h0c0 33.6-26.4 60-60 60z"/><path d="M159 195h0c-20.4 0-36-15.6-36-36v-36h36c20.4 0 36 15.6 36 36h0c0 20.4-15.6 36-36 36z" fill="#44d483"/><path d="M675 75h-84c-46.8 0-84 37.2-84 84h0c0 46.8 37.2 84 84 84h0c46.8 0 84-37.2 84-84V75zm-144 84h0c0-33.6 26.4-60 60-60h60v60c0 33.6-26.4 60-60 60h0c-33.6 0-60-26.4-60-60z"/><path d="M555 159h0c0-20.4 15.6-36 36-36h36v36c0 20.4-15.6 36-36 36h0c-20.4 0-36-15.6-36-36z" fill="#44d483"/><path d="M75 675h84c46.8 0 84-37.2 84-84h0c0-46.8-37.2-84-84-84h0c-46.8 0-84 37.2-84 84v84zm144-84h0c0 33.6-26.4 60-60 60H99v-60c0-33.6 26.4-60 60-60h0c33.6 0 60 26.4 60 60z"/><path d="M195 591h0c0 20.4-15.6 36-36 36h-36v-36c0-20.4 15.6-36 36-36h0c20.4 0 36 15.6 36 36z" fill="#44d483"/><path fill="#fff" d="M93.215 895.017v-1.902h9.408v-16.013H75.5V875.2l28.224-50.242h17.314V874.7h9.908v-8.707h1.902v18.515h-1.902v-7.406h-9.908v16.013h6.906v1.902H93.215zM78.703 874.7h23.92v-42.135zm78.966 13.461q1.001 3.553 3.903 3.553 2.902 0 5.204-3.603 2.302-3.603 2.302-9.908v-18.616q0-4.304-1.751-7.306-1.751-3.003-4.854-3.003-3.503 0-4.654 4.454-1.151 4.454-1.151 15.363v5.204q0 10.309 1.001 13.862zm11.41 28.874V887.41q-3.803 8.607-13.011 8.607-18.716 0-18.716-24.921 0-12.711 5.154-18.716 5.154-6.005 15.463-6.005 8.307 0 11.71 6.305l.701-5.304h22.819v1.802h-5.505v67.857h4.904v1.802H158.87v-1.802h10.209zm59.55-66.856q-3.703 0-6.505 4.804-2.802 4.804-2.802 11.41v26.822h7.106v1.802H195.2v-1.802h5.505v-44.037H195.2v-1.802h24.12v9.608q1.301-5.104 5.004-7.857 3.703-2.752 8.407-2.752 4.704 0 7.656 2.652 2.952 2.652 2.952 7.506 0 4.854-2.202 7.456-2.202 2.602-6.756 2.602-4.554 0-6.706-3.003-2.152-3.003-.55-8.307h3.603q2.502-5.104-2.102-5.104zm44.137-2.002q-4.404 0-6.305 4.804-1.902 4.804-1.902 15.913v5.204q0 9.908 2.202 14.212 2.202 4.304 8.107 4.304 5.905 0 9.408-4.003 3.503-4.003 4.504-9.108l1.802.2q-1.902 8.607-7.006 12.41-5.204 3.903-14.312 3.903-11.61 0-17.815-6.255-6.205-6.255-6.205-18.315 0-12.06 7.056-18.565 7.056-6.505 19.666-6.505 8.907 0 13.611 3.453 4.704 3.453 4.704 8.657 0 5.204-2.252 7.606-2.252 2.402-6.205 2.402-3.953 0-6.355-2.102-2.402-2.102-2.402-6.205 0-1.802.5-3.603h3.303q.701-2.002.701-3.603 0-4.804-4.804-4.804zm52.644 27.123v-8.507q0-9.708-1.051-14.162-1.051-4.454-4.854-4.454-2.202 0-3.553 1.251-1.351 1.251-1.952 4.153-.901 4.504-.901 13.711v7.807q0 10.909.651 13.111.651 2.202 1.351 3.603 1.101 2.402 4.304 2.402 3.903 0 5.104-4.504.901-3.203.901-14.412zm-25.121 14.312q-6.405-6.405-6.405-18.365 0-11.96 6.856-18.415 6.856-6.455 19.266-6.455 12.41 0 18.515 5.955 6.105 5.955 6.105 18.165 0 25.521-25.421 25.521-12.51 0-18.916-6.405zm68.557-1.351q1.101 3.453 4.053 3.453 2.952 0 5.104-2.602 2.152-2.602 2.152-7.706v-21.818q0-4.304-1.701-7.306-1.701-3.003-5.004-3.003-3.303 0-4.504 4.404-1.201 4.404-1.201 15.413v5.204q0 10.509 1.101 13.962zm12.611 6.756l-1.101-7.006q-3.403 8.007-13.812 8.007-8.607 0-13.361-6.205-4.754-6.205-4.754-18.515 0-24.921 19.817-24.921 8.807 0 11.61 4.904v-29.525h-6.105v-1.802h25.021v73.261h4.904v1.802h-22.219zm31.776-5.655q-6.455-6.656-6.455-18.515 0-11.86 7.256-18.165 7.256-6.305 18.465-6.305 22.719 0 21.818 22.819h-28.224v3.903q0 9.808 2.502 14.812 2.502 5.004 8.707 5.004 11.61 0 15.213-12.41l1.802.3q-1.902 7.206-6.856 11.209-4.954 4.003-14.862 4.003-12.911 0-19.366-6.656zm12.961-22.168h10.309v-4.904q0-8.107-.951-11.059-.951-2.952-3.803-2.952-2.852 0-4.204 3.153-1.351 3.153-1.351 10.859v4.904zm37.381 26.272q-2.152-2.552-2.152-6.205 0-3.653 2.252-6.155 2.252-2.502 6.355-2.502 4.103 0 6.505 2.102 2.402 2.102 2.402 6.305 0 4.204-2.252 6.606-2.252 2.402-6.606 2.402-4.354 0-6.505-2.552zm48.891-45.288q-4.404 0-6.305 4.804-1.902 4.804-1.902 15.913v5.204q0 9.908 2.202 14.212 2.202 4.304 8.107 4.304 5.905 0 9.408-4.003 3.503-4.003 4.504-9.108l1.802.2q-1.902 8.607-7.006 12.41-5.204 3.903-14.312 3.903-11.61 0-17.815-6.255-6.205-6.255-6.205-18.315 0-12.06 7.056-18.565 7.056-6.505 19.666-6.505 8.907 0 13.611 3.453 4.704 3.453 4.704 8.657 0 5.204-2.252 7.606-2.252 2.402-6.205 2.402-3.953 0-6.355-2.102-2.402-2.102-2.402-6.205 0-1.802.5-3.603h3.303q.701-2.002.701-3.603 0-4.804-4.804-4.804zm52.644 27.123v-8.507q0-9.708-1.051-14.162-1.051-4.454-4.854-4.454-2.202 0-3.553 1.251-1.351 1.251-1.952 4.153-.901 4.504-.901 13.711v7.807q0 10.909.651 13.111.651 2.202 1.351 3.603 1.101 2.402 4.304 2.402 3.903 0 5.104-4.504.901-3.203.901-14.412zm-25.121 14.312q-6.405-6.405-6.405-18.365 0-11.96 6.856-18.415 6.856-6.455 19.266-6.455 12.41 0 18.515 5.955 6.105 5.955 6.105 18.165 0 25.521-25.421 25.521-12.51 0-18.916-6.405zm47.139-42.235h24.12v9.208q3.303-10.209 14.562-10.209 11.259 0 13.661 10.809 3.503-10.809 14.712-10.809 14.712 0 14.712 16.714v30.125h5.605v1.802h-27.723v-1.802h3.503v-32.527q0-7.606-1.301-8.907-.601-.601-1.601-.601-2.902 0-5.104 3.903-2.202 3.903-2.202 9.908v28.224h3.603v1.802h-25.721v-1.802h3.503v-32.527q0-7.606-1.301-8.907-.601-.601-1.601-.601-2.802 0-5.054 4.254-2.252 4.254-2.252 10.158v27.623h3.603v1.802h-27.723v-1.802h5.505v-44.037h-5.505v-1.802z"/><defs ><path id="B" d="M291 123v24.72l5.356-1.648c4.532-1.648 9.888-1.648 14.42 0l4.944 1.648c0-13.596-11.124-24.72-24.72-24.72z"/><path id="C" d="M363.72 171.72H339h0c0-13.596 11.124-24.72 24.72-24.72h0l-1.648 5.356c-1.648 4.532-1.648 9.888 0 14.42l1.648 4.944z"/><path id="D" d="M123.72 339.72h-12.36c-7.004 0-12.36-5.356-12.36-12.36V315h24.72v24.72z"/></defs></svg>